<svg width="100" height="101" viewBox="0 0 100 101" fill="none" xmlns="http://www.w3.org/2000/svg">
<rect y="0.189941" width="100" height="100" rx="30" fill="url(#paint0_linear_4_257)"/>
<g opacity="0.25" filter="url(#filter0_f_4_257)">
<rect x="15.0654" y="50.1899" width="68.1223" height="42.5764" rx="21.2882" fill="url(#paint1_linear_4_257)"/>
</g>
<rect x="13" y="13.1899" width="73.7991" height="73.7991" rx="30" fill="url(#paint2_linear_4_257)"/>
<g filter="url(#filter1_i_4_257)">
<path d="M38.6979 67.8464V43.1129H30.4841V67.8464H38.6987H38.6979ZM34.5927 39.7365C37.4564 39.7365 39.2393 37.8373 39.2393 35.4638C39.1857 33.0362 37.4564 31.1899 34.6472 31.1899C31.836 31.1899 30 33.0362 30 35.4636C30 37.8371 31.7822 39.7363 34.5389 39.7363H34.5921L34.5927 39.7365ZM43.2443 67.8464H51.4574V54.0356C51.4574 53.2973 51.511 52.5571 51.728 52.0299C52.3215 50.5523 53.6729 49.0228 55.9425 49.0228C58.9138 49.0228 60.1031 51.2908 60.1031 54.6161V67.8464H68.316V53.6649C68.316 46.0682 64.2645 42.533 58.8606 42.533C54.4302 42.533 52.4844 45.0115 51.4033 46.6995H51.458V43.1137H43.2447C43.3519 45.434 43.2441 67.8472 43.2441 67.8472L43.2443 67.8464Z" fill="white"/>
</g>
<defs>
<filter id="filter0_f_4_257" x="9.60543" y="44.7299" width="79.0423" height="53.4967" filterUnits="userSpaceOnUse" color-interpolation-filters="sRGB">
<feFlood flood-opacity="0" result="BackgroundImageFix"/>
<feBlend mode="normal" in="SourceGraphic" in2="BackgroundImageFix" result="shape"/>
<feGaussianBlur stdDeviation="2.73" result="effect1_foregroundBlur_4_257"/>
</filter>
<filter id="filter1_i_4_257" x="27" y="27.1899" width="45" height="45.5" filterUnits="userSpaceOnUse" color-interpolation-filters="sRGB">
<feFlood flood-opacity="0" result="BackgroundImageFix"/>
<feBlend mode="normal" in="SourceGraphic" in2="BackgroundImageFix" result="shape"/>
<feColorMatrix in="SourceAlpha" type="matrix" values="0 0 0 0 0 0 0 0 0 0 0 0 0 0 0 0 0 0 127 0" result="hardAlpha"/>
<feOffset dy="0.5"/>
<feGaussianBlur stdDeviation="1.25"/>
<feComposite in2="hardAlpha" operator="arithmetic" k2="-1" k3="1"/>
<feColorMatrix type="matrix" values="0 0 0 0 0 0 0 0 0 0 0 0 0 0 0 0 0 0 0.1 0"/>
<feBlend mode="normal" in2="shape" result="effect1_innerShadow_4_257"/>
</filter>
<linearGradient id="paint0_linear_4_257" x1="8.40611" y1="6.74016" x2="82.6419" y2="100.19" gradientUnits="userSpaceOnUse">
<stop stop-color="#FBFBFC"/>
<stop offset="1" stop-color="#E7EAF9"/>
</linearGradient>
<linearGradient id="paint1_linear_4_257" x1="53.8347" y1="94.0361" x2="39.949" y2="45.0942" gradientUnits="userSpaceOnUse">
<stop stop-color="#006699"/>
<stop offset="1" stop-color="#058CCF"/>
</linearGradient>
<linearGradient id="paint2_linear_4_257" x1="55" y1="89.1899" x2="20.5" y2="13.1899" gradientUnits="userSpaceOnUse">
<stop stop-color="#006699"/>
<stop offset="1" stop-color="#058CCF"/>
</linearGradient>
</defs>
</svg>
