<svg width="21" height="20" viewBox="0 0 21 20" fill="none" xmlns="http://www.w3.org/2000/svg">
<path d="M9.01424 1.08849C9.42388 -0.172267 11.2075 -0.172267 11.6172 1.08849L13.0808 5.59309C13.264 6.15692 13.7894 6.53866 14.3822 6.53866H19.1187C20.4443 6.53866 20.9955 8.23499 19.923 9.01418L16.0912 11.7982C15.6116 12.1466 15.4109 12.7643 15.5941 13.3281L17.0577 17.8327C17.4673 19.0935 16.0243 20.1419 14.9519 19.3627L11.12 16.5787C10.6404 16.2302 9.99097 16.2302 9.51135 16.5787L5.6795 19.3627C4.60704 20.1419 3.16405 19.0935 3.5737 17.8327L5.03733 13.3281C5.22053 12.7643 5.01984 12.1466 4.54022 11.7982L0.70837 9.01418C-0.364091 8.23499 0.187081 6.53866 1.51272 6.53866H6.24914C6.84198 6.53866 7.3674 6.15692 7.5506 5.59309L9.01424 1.08849Z" fill="#F9C613"/>
</svg>
